<?xml version="1.0" encoding="UTF-8"?>
<svg width="400px" height="400px" viewBox="0 0 400 400" version="1.1" xmlns="http://www.w3.org/2000/svg" xmlns:xlink="http://www.w3.org/1999/xlink">
    <!-- Generator: Sketch 52.3 (67297) - http://www.bohemiancoding.com/sketch -->
    <title>logo-circle-light</title>
    <desc>Created with Sketch.</desc>
    <g id="logo-circle-light" stroke="none" stroke-width="1" fill="none" fill-rule="evenodd">
        <circle id="Oval" fill="#242A33" cx="200" cy="200" r="124"></circle>
        <g id="Group" transform="translate(114.000000, 161.000000)" fill="#FFFFFF">
            <path d="M172.386101,2.23309787 C172.231618,1.10148487 172.149127,0.502454857 172.149127,0.502454857 C172.149127,0.502454857 172.047137,1.10148487 171.845659,2.2169895 C171.759668,2.77574859 171.641181,3.46639496 171.506195,4.27735072 C171.341213,5.07572182 171.166731,5.98836166 170.99525,7.00218221 C170.609791,9.03032668 170.042351,11.4642007 169.313929,14.1593324 C168.572008,16.8448997 167.596612,19.7756163 166.297751,22.7098566 C164.988891,25.6405732 163.350566,28.5778338 161.273787,31.2014846 C159.200009,33.8377201 156.734772,36.1764541 153.870077,38.1326143 C151.025381,40.0983388 147.823723,41.6819929 144.409087,43.006403 C140.996951,44.3212487 137.367339,45.3974892 133.652735,46.3166731 C129.95013,47.3012972 126.146536,48.0926209 122.36544,49.0123081 C118.567845,49.8922278 114.786749,50.8828926 111.11764,52.0869933 C107.435533,53.2936109 103.855416,54.7594726 100.552768,56.6889533 C97.2626192,58.6128967 94.2434414,61.052308 91.9121902,63.9805077 C89.5554418,66.8618924 88.0291047,70.2345824 87.1556979,73.2503713 C86.8587296,74.2843273 86.6642503,75.2654277 86.4997679,76.2268961 C86.3382851,75.2654277 86.1338069,74.2843273 85.8403383,73.2569153 C84.9664315,70.2441467 83.4470937,66.8719601 81.083346,63.990072 C78.7625937,61.0658995 75.742916,58.6320254 72.4532671,56.7025447 C69.14662,54.7725606 65.5700017,53.313243 61.894394,52.0995779 C58.2157866,50.8894366 54.4346902,49.9118599 50.6435948,49.0253962 C46.8594987,48.1026886 43.0584044,47.3012972 39.3498002,46.3166731 C35.6381963,45.4010129 32.015083,44.3212487 28.5999475,42.9968387 C25.184812,41.6618575 21.9871533,40.0852508 19.1424569,38.1195262 C16.2877616,36.163366 13.8150255,33.818088 11.7417468,31.1883966 C9.66146885,28.5682695 8.03014296,25.6305055 6.72428234,22.7033126 C5.4194216,19.7690723 4.44302581,16.8383557 3.70810425,14.1593324 C2.979682,11.4672211 2.41274251,9.03687071 2.02028439,7.00218221 C1.83880376,5.98181764 1.66782201,5.06263376 1.50283962,4.26778638 C1.37435333,3.46287126 1.25236635,2.7792723 1.16337585,2.22000982 C0.965396982,1.10148487 0.863407867,0.505978563 0.863407867,0.505978563 C0.863407867,0.505978563 0.774417365,1.10752551 0.616434227,2.23662158 C0.467950075,3.36823458 0.243474033,5.03645766 0.134985612,7.18893862 C0.0129986317,9.33789588 -0.0759918703,11.977655 0.0954898274,15.0261641 C0.263471899,18.0812172 0.704924782,21.5485438 1.6248266,25.2806518 C2.55422741,28.9931278 3.9980733,32.9809561 6.18733964,36.7422606 C8.37610604,40.4975244 11.2507992,44.0207269 14.61644,46.8563035 C16.284262,48.2924653 18.0675717,49.5841553 19.9173742,50.7031836 C21.7531783,51.8544287 23.6619746,52.8551612 25.6002677,53.7063879 C29.4698547,55.485356 33.4689279,56.6954973 37.4115071,57.7359973 C41.3670849,58.7140774 45.2866666,59.5054011 49.0977598,60.1698714 C50.9865582,60.5036167 52.8653577,60.8303146 54.7116606,61.1544955 C56.5309665,61.4973018 58.3242751,61.8446385 60.0880868,62.1748601 C63.5722149,62.9108112 66.8658634,63.7182433 69.8160485,64.8372716 C72.772733,65.9492525 75.3934533,67.34313 77.5197263,69.1190778 C81.8582633,72.5833841 84.0570286,77.7707827 85.1249146,81.6307509 C85.3918861,82.6058107 85.6163622,83.4857304 85.777345,84.263966 C85.9653249,85.0326373 86.1073098,85.7192566 86.1928006,86.2850631 C86.3937792,87.4040914 86.5027676,87.9995977 86.5027676,87.9995977 C86.5027676,87.9995977 86.6117559,87.4005677 86.8192338,86.2921105 C86.8982254,85.7293243 87.0432099,85.0588134 87.2276902,84.2735303 C87.3961722,83.4887507 87.6236479,82.6058107 87.8906194,81.6337712 C88.4375611,79.7037871 89.2424752,77.4471051 90.4653446,75.2261636 C91.7047124,73.0213304 93.3235396,70.8527411 95.4893084,69.1321658 C97.6185812,67.356218 100.245801,65.9593203 103.189487,64.8503597 C106.150171,63.7318347 109.43632,62.9203756 112.917448,62.1944921 C114.687759,61.8572231 116.477568,61.5108932 118.294374,61.1670802 C120.146677,60.8403823 122.022477,60.5096573 123.907775,60.175912 C127.718869,59.5119451 131.63795,58.7206215 135.587529,57.7359973 C139.540107,56.6954973 143.53868,55.4752883 147.402268,53.6963201 C149.340561,52.8491205 151.245858,51.8347966 153.091661,50.6905989 C154.937963,49.5715706 156.721273,48.2823976 158.379596,46.8432154 C161.745237,44.0076389 164.626429,40.4844363 166.805197,36.7296759 C169.004462,32.9708884 170.441809,28.9805431 171.37121,25.2741078 C172.287112,21.5485438 172.729065,18.0776934 172.903546,15.0261641 C173.075028,11.971111 172.989037,9.33789588 172.871049,7.17887089 C172.758561,5.01028156 172.531086,3.35816685 172.386101,2.23309787 Z" id="mother"></path>
            <path d="M86.5010066,63.1085714 C86.5010066,63.1085714 86.4322148,62.715809 86.2941329,61.9825854 C86.2452807,61.6159736 86.1530599,61.1678925 86.0319267,60.663487 C85.9267451,60.1530467 85.7821827,59.5767269 85.6082094,58.9385508 C84.9158056,56.4084768 83.4916172,53.0104028 80.6891016,50.7352974 C79.3107743,49.5736057 77.6109205,48.6568248 75.7007035,47.9336591 C73.7874955,47.1999326 71.6574441,46.6698794 69.4027699,46.1921273 C68.2542469,45.9763846 67.0992436,45.750081 65.9208112,45.5242803 C64.7229376,45.3145724 63.5086139,45.0922919 62.2848188,44.8760463 C59.82028,44.4410405 57.2829615,43.9300973 54.7202199,43.2853836 C52.1669497,42.6014439 49.5807791,41.8088784 47.0703791,40.6406491 C45.820164,40.0874625 44.5859006,39.4296735 43.3915165,38.6697963 C42.2001233,37.9365727 41.0416306,37.0952263 39.9648903,36.1497802 C37.7829958,34.293588 35.9221294,31.9857944 34.5074123,29.5241143 C33.0867133,27.0563995 32.1545354,24.4473707 31.5538539,22.0183789 C30.9566619,19.5732944 30.6710266,17.3017094 30.5628541,15.2986712 C30.4511921,13.2986505 30.5070231,11.570194 30.5857847,10.1590655 C30.6545764,8.75196012 30.8026282,7.65866238 30.9008309,6.91890112 C31.0060125,6.17561958 31.0548646,5.78285714 31.0548646,5.78285714 C31.0548646,5.78285714 31.1271457,6.17561958 31.2552579,6.91186056 C31.3140798,7.26891732 31.386361,7.72403897 31.4716029,8.25107486 C31.5832649,8.77459048 31.6949268,9.37354062 31.8100782,10.0413876 C32.0623146,11.3735614 32.4302009,12.9677444 32.8992808,14.7324094 C33.3753395,16.4900339 34.0119124,18.4080824 34.8518695,20.3326687 C35.6988055,22.2507172 36.7585971,24.1758064 38.101033,25.8876672 C39.4399794,27.6126034 41.0446215,29.1479475 42.8960166,30.4308373 C44.730463,31.7273054 46.8076744,32.7552265 49.0164874,33.6322786 C51.2282914,34.4897178 53.571697,35.200311 55.9739244,35.8057988 C58.3761519,36.4540328 60.8372013,36.9745311 63.2887794,37.5764986 C65.7403575,38.159356 68.1884461,38.8040698 70.5712325,39.5931149 C72.9505294,40.3821601 75.2640255,41.347722 77.4070377,42.6145192 C79.5370892,43.8742758 81.4896779,45.4654414 82.9926278,47.3865074 C84.5219978,49.2753879 85.5065173,51.4820993 86.0713074,53.4559694 C86.2647219,54.1268338 86.3963235,54.7715475 86.4980156,55.393128 C86.6026987,54.7715475 86.7308108,54.1268338 86.9242253,53.4489288 C87.485526,51.4720413 88.4735349,49.2688502 90.0029049,47.3769523 C91.5058549,45.4589037 93.464924,43.868241 95.5984649,42.6014439 C97.7315073,41.3376641 100.048493,40.3721022 102.437261,39.5865773 C104.813567,38.7975321 107.261656,38.1462807 109.716723,37.5734812 C112.161322,36.9679934 114.629351,36.4540328 117.028587,35.8057988 C119.433806,35.200311 121.777211,34.4997757 123.989015,33.6357989 C126.200819,32.7713192 128.278529,31.7273054 130.112975,30.4408953 C131.960383,29.1575025 133.568514,27.629199 134.907461,25.9007425 C136.256377,24.182344 137.306199,22.2577578 138.153633,20.3361889 C139.000071,18.4116027 139.633154,16.4965715 140.109213,14.7324094 C140.585272,12.9712646 140.94568,11.3770816 141.198914,10.0449079 C141.313567,9.38058117 141.421739,8.78112813 141.533401,8.2611328 C141.615652,7.73057662 141.693915,7.27545498 141.750245,6.91186056 C141.881348,6.17561958 141.950638,5.78285714 141.950638,5.78285714 C141.950638,5.78285714 141.99949,6.17561958 142.104173,6.91890112 C142.206364,7.6551421 142.347437,8.7388848 142.419219,10.1590655 C142.49499,11.5732114 142.547332,13.2986505 142.43567,15.2986712 C142.327996,17.298692 142.041862,19.5702771 141.448159,22.0118412 C140.840997,24.4443533 139.912309,27.0528792 138.494601,29.5180795 C137.079884,31.9792567 135.216026,34.2870503 133.043603,36.1397223 C131.967361,37.0856713 130.80837,37.930538 129.613986,38.6602413 C128.422593,39.4130779 127.191819,40.0809249 125.935123,40.6371288 C123.430705,41.7993234 120.845033,42.6014439 118.295252,43.2853836 C115.725034,43.9300973 113.188712,44.4475782 110.727164,44.8830869 C109.503369,45.0983267 108.289045,45.3216129 107.090673,45.5343383 C105.913238,45.760139 104.757736,45.9824194 103.609213,46.2021853 C101.351548,46.6799373 99.2244874,47.2104935 97.3147689,47.9432142 C95.4045519,48.6699001 93.6982177,49.5831608 92.3263708,50.7453554 C90.922122,51.8743588 89.8648229,53.2985627 89.0642466,54.7383563 C88.2731416,56.1952485 87.7547111,57.674771 87.3967946,58.9385508 C87.2268093,59.5737095 87.0822469,60.1530467 86.9770653,60.6700246 C86.8489532,61.1804649 86.7637112,61.6225113 86.7108712,61.9861057 C86.5732877,62.715809 86.5010066,63.1085714 86.5010066,63.1085714" id="child" fill-opacity="0.5"></path>
        </g>
    </g>
</svg>